<svg width="39" height="24" viewBox="0 0 39 24" fill="none" xmlns="http://www.w3.org/2000/svg">
<path d="M29.36 23.6C26.4267 23.6 24.32 22.8 23.04 21.2C21.8133 19.6 21.2 17.5733 21.2 15.12C21.2 13.68 21.52 12 22.16 10.08C22.8533 8.10667 23.92 6.21333 25.36 4.4C26.8 2.53333 28.6133 1.06667 30.8 0L37.84 4.08C36.6133 4.61333 35.4133 5.22667 34.24 5.92C33.0667 6.61333 32.1867 7.44 31.6 8.4H32C32.96 8.4 33.9467 8.64 34.96 9.12C36.0267 9.6 36.9067 10.3467 37.6 11.36C38.3467 12.32 38.72 13.6 38.72 15.2C38.72 16.32 38.4 17.5467 37.76 18.88C37.1733 20.16 36.1867 21.28 34.8 22.24C33.4667 23.1467 31.6533 23.6 29.36 23.6ZM8.16 23.6C5.22667 23.6 3.12 22.8 1.84 21.2C0.613333 19.6 0 17.5733 0 15.12C0 13.68 0.32 12 0.96 10.08C1.65333 8.10667 2.72 6.21333 4.16 4.4C5.6 2.53333 7.41333 1.06667 9.6 0L16.64 4.08C15.4133 4.61333 14.2133 5.22667 13.04 5.92C11.8667 6.61333 10.9867 7.44 10.4 8.4H10.8C11.76 8.4 12.7467 8.64 13.76 9.12C14.8267 9.6 15.7067 10.3467 16.4 11.36C17.1467 12.32 17.52 13.6 17.52 15.2C17.52 16.32 17.2 17.5467 16.56 18.88C15.9733 20.16 14.9867 21.28 13.6 22.24C12.2667 23.1467 10.4533 23.6 8.16 23.6Z" fill="#DAD7DC"/>
</svg>
