<svg width="185" height="208" viewBox="0 0 185 208" fill="none" xmlns="http://www.w3.org/2000/svg">
<path fill-rule="evenodd" clip-rule="evenodd" d="M92.5946 199.647C92.0529 199.005 92.0197 198.085 92.5206 197.594C96.413 193.773 100.427 190.231 104.362 186.758C107.184 184.269 109.965 181.815 112.632 179.319C119.089 173.277 125.098 166.804 130.112 158.443C139.088 143.476 144.768 125.852 143.871 106.366C143.409 96.3146 140.538 84.8163 135.31 74.911C130.087 65.0165 122.574 56.8168 112.825 53.0912C107.88 51.2014 102.559 50.4155 97.2637 50.6152C101.175 54.8805 104.684 59.7886 107.651 65.4387C114.681 78.8228 109.993 90.7518 101.349 97.3722C92.7399 103.967 79.7204 105.714 69.2429 98.3378C63.6073 94.3705 60.2738 89.079 59.1559 83.432C58.0466 77.8281 59.1496 72.0429 62.068 66.9997C66.765 58.8831 74.9236 52.9579 84.1751 49.9348C86.4658 49.1862 88.8315 48.613 91.2374 48.2287C79.6868 37.759 65.2061 32.0002 50.7473 28.7886C50.0098 28.6248 49.4316 27.8499 49.4558 27.0578C49.48 26.2657 50.0975 25.7563 50.835 25.9201C66.2472 29.3435 82.1195 35.7113 94.553 47.8218C100.841 47.282 107.291 48.0431 113.301 50.3398C123.977 54.4195 132.062 63.359 137.568 73.7896C143.068 84.2093 146.057 96.2219 146.54 106.719C147.47 126.921 141.577 145.059 132.421 160.327C127.255 168.94 121.086 175.571 114.558 181.68C111.777 184.282 108.97 186.757 106.148 189.245C102.274 192.66 98.3744 196.099 94.4826 199.919C93.9817 200.411 93.1364 200.289 92.5946 199.647ZM93.9831 50.8647C91.0386 51.2016 88.1282 51.8388 85.3221 52.7557C76.4583 55.6522 68.7675 61.2969 64.3952 68.8523C61.7241 73.4681 60.8286 78.5659 61.7644 83.2932C62.6917 87.9773 65.4471 92.4654 70.3971 95.9501C79.5979 102.427 91.4834 101.081 99.582 94.8775C107.647 88.7005 111.469 78.1289 105.39 66.5534C102.199 60.4784 98.3365 55.2928 93.9831 50.8647Z" fill="#FF6B00" fill-opacity="0.2"/>
<path fill-rule="evenodd" clip-rule="evenodd" d="M101.539 199.352C101.855 200.132 101.572 200.939 100.905 201.157C100.835 201.18 100.736 201.212 100.61 201.254C99.6481 201.572 97.1493 202.397 94.7426 203.062C93.3883 203.437 92.0208 203.772 90.9557 203.934C90.437 204.013 89.9116 204.064 89.4676 204.029C89.2585 204.012 88.9468 203.969 88.6263 203.817C88.2807 203.653 87.7016 203.234 87.5159 202.434C87.2517 201.296 87.5211 200.215 87.8308 199.379C88.1537 198.507 88.6275 197.634 89.0388 196.882L89.0724 196.82C89.4934 196.051 89.835 195.426 90.0317 194.898C90.1099 194.689 90.1452 194.544 90.1591 194.456C89.8652 193.779 90.026 193.031 90.566 192.709C91.1634 192.353 91.9988 192.653 92.4318 193.379C92.7995 193.996 92.8628 194.618 92.8316 195.095C92.8009 195.563 92.6735 196.004 92.5323 196.382C92.2709 197.084 91.8515 197.849 91.4706 198.545C91.4448 198.592 91.4192 198.638 91.3938 198.685C90.9686 199.462 90.583 200.183 90.3333 200.857C90.3136 200.91 90.2954 200.962 90.2784 201.012C91.1958 200.863 92.4098 200.567 93.6899 200.213C96.0386 199.564 98.4793 198.758 99.4519 198.437C99.5817 198.394 99.6853 198.36 99.7591 198.336C100.426 198.118 101.223 198.573 101.539 199.352ZM89.1579 201.102C89.158 201.102 89.1612 201.102 89.1672 201.103C89.1608 201.102 89.1578 201.102 89.1579 201.102Z" fill="black" fill-opacity="0.2"/>
</svg>
